<?xml version="1.0" encoding="UTF-8"?>
<svg version="1.1" xmlns="http://www.w3.org/2000/svg" width="399" height="101">
<path d="M0 0 C131.67 0 263.34 0 399 0 C399 33.33 399 66.66 399 101 C267.33 101 135.66 101 0 101 C0 67.67 0 34.34 0 0 Z " fill="#020202" transform="translate(0,0)"/>
<path d="M0 0 C1.9375 1.5625 1.9375 1.5625 3 3 C3.33 2.01 3.66 1.02 4 0 C6.31 0 8.62 0 11 0 C11.0744389 4.0384057 11.12873729 8.07654293 11.16479492 12.11547852 C11.17983432 13.48794517 11.20027133 14.86036414 11.22631836 16.23266602 C11.26291221 18.21088656 11.27816698 20.18946514 11.29296875 22.16796875 C11.3086792 23.35672607 11.32438965 24.5454834 11.34057617 25.77026367 C10.96688426 29.31404171 10.10617883 31.15956588 8 34 C4.2957874 36.48042618 0.21603853 37.27532168 -4.1875 36.875 C-7.79352683 36.04738728 -10.10893025 35.27781253 -13 33 C-13.495 31.515 -13.495 31.515 -14 30 C-11.35261084 28.5393715 -10.10551666 28 -7 28 C-7 28.66 -7 29.32 -7 30 C-2.99745544 30.09181134 -2.99745544 30.09181134 1 30 C2.29633621 28.93354885 2.29633621 28.93354885 2.0625 26.4375 C2.041875 25.633125 2.02125 24.82875 2 24 C1.01 24.66 0.02 25.32 -1 26 C-4.93051214 26.52406828 -6.72532696 26.14790087 -10.25 24.25 C-13.61881527 21.4936966 -14.80419368 19.7063122 -15.30078125 15.37890625 C-15.34110926 5.68674125 -15.34110926 5.68674125 -12 2 C-7.90698263 -1.41084781 -5.07739331 -1.31636123 0 0 Z " fill="#F1F1F1" transform="translate(182,39)"/>
<path d="M0 0 C3.01125 -0.0825 6.0225 -0.165 9.125 -0.25 C10.06230957 -0.28641602 10.99961914 -0.32283203 11.96533203 -0.36035156 C17.47922855 -0.43316553 20.67167183 0.25147903 25 4 C27.46172214 7.69258321 27.69839502 10.71217938 27 15 C25 18.3125 25 18.3125 23 21 C23 24.43797655 23.77261897 25.64994366 25.5 28.5625 C28 32.79166667 28 32.79166667 28 35 C22.91307753 35.8770556 22.91307753 35.8770556 20 35 C17.17371918 31.7361778 14 27.45637368 14 23 C12.02 23 10.04 23 8 23 C8 26.96 8 30.92 8 35 C5.36 35 2.72 35 0 35 C0 23.45 0 11.9 0 0 Z " fill="#F2F2F2" transform="translate(123,30)"/>
<path d="M0 0 C3.82577579 1.0067831 5.7463208 2.2041496 8.5625 4.9375 C10.64199931 9.09649863 9.90038636 14.39678155 9.5625 18.9375 C8.03756657 23.1492209 7.28270689 24.45736208 3.5625 26.9375 C1.37109375 27.203125 1.37109375 27.203125 -1 27.1875 C-2.17755859 27.19523437 -2.17755859 27.19523437 -3.37890625 27.203125 C-5.4375 26.9375 -5.4375 26.9375 -7.4375 24.9375 C-7.7675 28.8975 -8.0975 32.8575 -8.4375 36.9375 C-10.7475 36.9375 -13.0575 36.9375 -15.4375 36.9375 C-15.4375 25.0575 -15.4375 13.1775 -15.4375 0.9375 C-13.1275 0.9375 -10.8175 0.9375 -8.4375 0.9375 C-8.1075 1.5975 -7.7775 2.2575 -7.4375 2.9375 C-6.921875 2.421875 -6.40625 1.90625 -5.875 1.375 C-3.4375 -0.0625 -3.4375 -0.0625 0 0 Z " fill="#F8F8F8" transform="translate(304.4375,38.0625)"/>
<path d="M0 0 C3.46173078 2.22484271 4.95283091 4.40718867 6.25 8.375 C6.83974344 13.68269095 6.52221078 17.3742768 3.57421875 21.89453125 C0.75045727 25.05147992 -2.60168467 26.24202884 -6.76953125 26.5 C-12.17786655 26.16908847 -15.00845114 24.20780615 -18.75 20.375 C-20.40374596 15.41376211 -21.14878879 9.21733881 -18.7734375 4.390625 C-13.75043446 -1.83420086 -7.33501338 -3.72178269 0 0 Z " fill="#F3F3F3" transform="translate(337.75,39.625)"/>
<path d="M0 0 C3.0361795 1.78904464 3.87311151 3.1788115 4.78515625 6.56640625 C4.82640625 7.47390625 4.86765625 8.38140625 4.91015625 9.31640625 C1.53515625 9.50390625 1.53515625 9.50390625 -2.08984375 9.31640625 C-2.74984375 8.32640625 -3.40984375 7.33640625 -4.08984375 6.31640625 C-7.67341616 6.06624752 -7.67341616 6.06624752 -11.08984375 6.31640625 C-11.41984375 7.96640625 -11.74984375 9.61640625 -12.08984375 11.31640625 C-11.28160156 11.55875 -10.47335937 11.80109375 -9.640625 12.05078125 C1.16174309 15.43873747 1.16174309 15.43873747 4.91015625 19.31640625 C6.47951219 22.45511813 6.26216728 24.85496447 5.91015625 28.31640625 C3.07473269 31.96195082 0.39439981 34.16927418 -4.08984375 35.31640625 C-9.72444581 35.76359689 -13.23890419 35.51361641 -18.08984375 32.31640625 C-21.34476946 28.9758246 -22.08984375 28.08827644 -22.08984375 23.31640625 C-19.44984375 23.31640625 -16.80984375 23.31640625 -14.08984375 23.31640625 C-13.42984375 24.63640625 -12.76984375 25.95640625 -12.08984375 27.31640625 C-9.44984375 27.31640625 -6.80984375 27.31640625 -4.08984375 27.31640625 C-3.75984375 25.66640625 -3.42984375 24.01640625 -3.08984375 22.31640625 C-3.89808594 22.0740625 -4.70632813 21.83171875 -5.5390625 21.58203125 C-16.34143059 18.19407503 -16.34143059 18.19407503 -20.08984375 14.31640625 C-21.54132278 11.4134482 -21.462234 9.54378846 -21.08984375 6.31640625 C-16.29768346 -1.42615123 -8.53114924 -2.79056283 0 0 Z " fill="#F4F4F4" transform="translate(278.08984375,30.68359375)"/>
<path d="M0 0 C2.64 0 5.28 0 8 0 C8.33 3.3 8.66 6.6 9 10 C10.32 9.34 11.64 8.68 13 8 C17.00022687 8.14286525 19.24332729 8.38271437 22.375 10.9375 C24.80771012 14.02517054 25.12212057 15.70495039 25.09765625 19.5703125 C25.09443359 20.46621094 25.09121094 21.36210938 25.08789062 22.28515625 C25.07951172 23.22230469 25.07113281 24.15945312 25.0625 25.125 C25.05798828 26.06988281 25.05347656 27.01476562 25.04882812 27.98828125 C25.03702357 30.32558387 25.02055759 32.66276061 25 35 C22.36 35 19.72 35 17 35 C16.505 25.1 16.505 25.1 16 15 C13.69 15.66 11.38 16.32 9 17 C8.67 22.94 8.34 28.88 8 35 C5.36 35 2.72 35 0 35 C0 23.45 0 11.9 0 0 Z " fill="#EAEAEA" transform="translate(198,30)"/>
<path d="M0 0 C8.52966111 -0.34169266 14.26170637 -0.45767373 21.3125 4.6875 C23.67664898 7.92725972 24.06797139 11.08786863 24 15 C23.04845898 19.4981939 21.57820436 22.09270896 18 25 C17.34 25 16.68 25 16 25 C20.64038164 30.8881287 25.04352712 36.41809778 31 41 C31 41.33 31 41.66 31 42 C24.01058567 41.59942092 18.12849564 41.22626113 13 35.9375 C11 33 11 33 9.66796875 30.5234375 C7.15648656 25.49919693 7.15648656 25.49919693 3.05859375 21.91015625 C0.95143489 21.27491609 0.95143489 21.27491609 -2 21 C-0.70707654 18.41415308 0.32460777 18.01964249 3 17 C5.359375 17.0234375 5.359375 17.0234375 7.75 17.375 C8.54921875 17.48585938 9.3484375 17.59671875 10.171875 17.7109375 C11.07679687 17.85402344 11.07679687 17.85402344 12 18 C12.96070434 15.11788698 13.10581883 13.30149956 13.0625 10.3125 C13.05347656 9.50425781 13.04445313 8.69601563 13.03515625 7.86328125 C13.02355469 7.24839844 13.01195312 6.63351563 13 6 C8.6960081 4.25150329 4.35249409 2.6229639 0 1 C0 0.67 0 0.34 0 0 Z " fill="#EAE9E6" transform="translate(35,26)"/>
<path d="M0 0 C2.64 0 5.28 0 8 0 C8 2.31 8 4.62 8 7 C9.65 7 11.3 7 13 7 C13 8.98 13 10.96 13 13 C11.35 13 9.7 13 8 13 C8.05985379 15.29240007 8.14859027 17.58406206 8.25 19.875 C8.29640625 21.15117188 8.3428125 22.42734375 8.390625 23.7421875 C8.62555056 27.09188105 8.62555056 27.09188105 11.046875 28.4453125 C11.69140625 28.62835938 12.3359375 28.81140625 13 29 C13 30.32 13 31.64 13 33 C11.58506449 33.10884119 10.16767057 33.18597617 8.75 33.25 C7.96109375 33.29640625 7.1721875 33.3428125 6.359375 33.390625 C4 33 4 33 1.71875 31.53125 C-0.80002819 27.82177666 -0.43849227 24.62157066 -0.25 20.25 C-0.23195312 19.45722656 -0.21390625 18.66445313 -0.1953125 17.84765625 C-0.14833082 15.89791652 -0.07659044 13.94880122 0 12 C-0.99 12 -1.98 12 -3 12 C-3 10.35 -3 8.7 -3 7 C-2.01 7 -1.02 7 0 7 C0 4.69 0 2.38 0 0 Z " fill="#ECECEC" transform="translate(229,32)"/>
<path d="M0 0 C2.64 0 5.28 0 8 0 C8 2.31 8 4.62 8 7 C9.65 7 11.3 7 13 7 C13 8.65 13 10.3 13 12 C11.35 12 9.7 12 8 12 C8 16.95 8 21.9 8 27 C9.65 27 11.3 27 13 27 C13 28.98 13 30.96 13 33 C11.58506449 33.10884119 10.16767057 33.18597617 8.75 33.25 C7.96109375 33.29640625 7.1721875 33.3428125 6.359375 33.390625 C4 33 4 33 1.71875 31.53125 C-0.80002819 27.82177666 -0.43849227 24.62157066 -0.25 20.25 C-0.23195313 19.45722656 -0.21390625 18.66445313 -0.1953125 17.84765625 C-0.14833082 15.89791652 -0.07659044 13.94880122 0 12 C-0.99 12 -1.98 12 -3 12 C-3 10.35 -3 8.7 -3 7 C-2.01 7 -1.02 7 0 7 C0 4.69 0 2.38 0 0 Z " fill="#EEEEEE" transform="translate(349,32)"/>
<path d="M0 0 C2.64 0 5.28 0 8 0 C8 8.58 8 17.16 8 26 C5.36 26 2.72 26 0 26 C0 17.42 0 8.84 0 0 Z " fill="#EAEAEA" transform="translate(155,39)"/>
<path d="M0 0 C2.95520709 0.51716124 3.67872029 1.10626197 5.5 3.4375 C6.28223344 7.60174275 6.14718601 11.33189057 4 15 C3.505 15.474375 3.01 15.94875 2.5 16.4375 C-3.0631769 15.95374549 -3.0631769 15.95374549 -4.875 13.8125 C-5.98253865 9.60385314 -6.24538202 5.96749467 -4.3125 2 C-2.5 0.4375 -2.5 0.4375 0 0 Z " fill="#0E0E0E" transform="translate(330.5,43.5625)"/>
<path d="M0 0 C2.17240606 3.25860909 2.23564158 3.82050803 1.8125 7.5 C1.73644531 8.2734375 1.66039062 9.046875 1.58203125 9.84375 C0.89445434 12.39101479 0.09375362 13.41952094 -2 15 C-4.5625 14.9375 -4.5625 14.9375 -7 14 C-9.89201792 10.55712153 -9.33649448 6.23983044 -9 2 C-6.80968037 -2.01558599 -4.00554886 -1.19314221 0 0 Z " fill="#0F0F0F" transform="translate(305,45)"/>
<path d="M0 0 C2.4375 0.8125 2.4375 0.8125 4.4375 2.8125 C4.703125 5.125 4.703125 5.125 4.6875 7.8125 C4.69265625 8.699375 4.6978125 9.58625 4.703125 10.5 C4.4375 12.8125 4.4375 12.8125 2.4375 14.8125 C-0.5625 15.125 -0.5625 15.125 -3.5625 14.8125 C-5.62770632 11.71469052 -5.85727024 10.8584519 -5.875 7.3125 C-5.89175781 6.5390625 -5.90851563 5.765625 -5.92578125 4.96875 C-5.30392048 1.2777054 -3.73881028 -0.27357148 0 0 Z " fill="#090909" transform="translate(180.5625,44.1875)"/>
<path d="M0 0 C6.625 -0.125 6.625 -0.125 10 1 C11.31690141 7.34507042 11.31690141 7.34507042 10.0625 9.9375 C6.74491303 11.64655995 3.69558797 11.18175023 0 11 C0 7.37 0 3.74 0 0 Z " fill="#0A0A0A" transform="translate(131,36)"/>
<path d="M0 0 C1.67542976 0.28604898 3.34385343 0.61781233 5 1 C5.33 2.65 5.66 4.3 6 6 C3.6875 7.125 3.6875 7.125 1 8 C0.01 7.34 -0.98 6.68 -2 6 C-1.125 1.125 -1.125 1.125 0 0 Z " fill="#E9E9E9" transform="translate(157,28)"/>
</svg>
